<svg xmlns="http://www.w3.org/2000/svg" viewBox="0 0 341.08 147.78"><defs><style>.cls-1{fill:#ff67a3;}.cls-2{fill:#f8f600;}.cls-3{fill:#aecbeb;}.cls-4{fill:#0c4495;}</style></defs><title>Asset 2logo</title><g id="Layer_2" data-name="Layer 2"><g id="Layer_1-2" data-name="Layer 1"><path class="cls-1" d="M101.62,39.78a51.12,51.12,0,0,1-7.78-.6c-12.68-2-23.63-8.08-33.29-13.48C42.78,15.75,29.94,8.57,10.87,24.18L2,13.35c26.45-21.66,47.13-10.08,65.39.13,9,5.06,18.4,10.3,28.58,11.86,14.57,2.25,26.17-4.58,38.44-11.8C145.1,7.25,156.17.75,169.6.07c16.78-.83,29.53,6.27,41.87,13.16C223.57,20,235,26.36,249.63,24.4c11.88-1.59,21.35-6.68,30.51-11.6,16.8-9,34.16-18.34,60.94-2l-7.29,12c-19.93-12.15-31.3-6-47,2.4C277,30.4,265.88,36.35,251.49,38.28c-19.24,2.58-33.9-5.61-46.84-12.83-11.1-6.2-21.58-12.05-34.34-11.4-10,.51-19.13,5.88-28.8,11.56C130.11,32.31,117.41,39.78,101.62,39.78Z"/><path class="cls-2" d="M101.62,75.78a51.12,51.12,0,0,1-7.78-.6c-12.68-2-23.63-8.08-33.29-13.48-17.77-9.95-30.61-17.13-49.68-1.52L2,49.35c26.45-21.66,47.13-10.08,65.39.13,9,5.06,18.4,10.3,28.58,11.86,14.57,2.25,26.17-4.58,38.44-11.8,10.7-6.29,21.76-12.79,35.19-13.48,16.78-.84,29.53,6.27,41.87,13.16C223.57,56,235,62.36,249.63,60.4c11.88-1.59,21.35-6.68,30.51-11.6,16.8-9,34.16-18.34,60.94-2l-7.29,12c-19.93-12.15-31.3-6-47,2.4C277,66.4,265.88,72.35,251.49,74.28c-19.24,2.58-33.9-5.61-46.84-12.83-11.1-6.2-21.58-12-34.34-11.4-10,.51-19.13,5.88-28.8,11.56C130.11,68.31,117.41,75.78,101.62,75.78Z"/><path class="cls-3" d="M101.62,111.78a51.12,51.12,0,0,1-7.78-.6c-12.68-2-23.63-8.08-33.29-13.48-17.77-9.95-30.61-17.13-49.68-1.52L2,85.35c26.45-21.66,47.13-10.08,65.39.13,9,5.06,18.4,10.3,28.58,11.86,14.57,2.25,26.17-4.58,38.44-11.8,10.7-6.29,21.76-12.79,35.19-13.48,16.78-.83,29.53,6.27,41.87,13.16C223.57,92,235,98.36,249.63,96.4c11.88-1.59,21.35-6.68,30.51-11.6,16.8-9,34.16-18.34,60.94-2l-7.29,12c-19.93-12.15-31.3-6-47,2.4-9.79,5.25-20.88,11.21-35.27,13.14-19.24,2.58-33.9-5.61-46.84-12.83-11.1-6.2-21.58-12.05-34.34-11.4-10,.51-19.13,5.88-28.8,11.56C130.11,104.31,117.41,111.78,101.62,111.78Z"/><path class="cls-4" d="M99.62,147.78a51.12,51.12,0,0,1-7.78-.6c-12.68-2-23.63-8.08-33.29-13.48-17.77-9.95-30.61-17.13-49.68-1.52L0,121.35c26.45-21.66,47.13-10.08,65.39.13,9,5.06,18.4,10.3,28.58,11.86,14.57,2.25,26.17-4.58,38.44-11.8,10.7-6.29,21.76-12.79,35.19-13.48,16.77-.84,29.53,6.27,41.87,13.16,12.1,6.75,23.53,13.13,38.15,11.18,11.88-1.59,21.35-6.68,30.51-11.6,16.8-9,34.16-18.34,60.94-2l-7.29,12c-19.93-12.15-31.3-6-47,2.4-9.79,5.25-20.88,11.21-35.27,13.14-19.24,2.58-33.9-5.61-46.84-12.83-11.1-6.2-21.58-12-34.34-11.4-10,.51-19.13,5.88-28.8,11.56C128.11,140.31,115.41,147.78,99.62,147.78Z"/></g></g></svg>