<svg xmlns="http://www.w3.org/2000/svg" viewBox="0 0 941.94 538.98"><title>bzh_shapeAsset 1</title><g id="Layer_2" data-name="Layer 2"><g id="Layer_2-2" data-name="Layer 2"><path d="M565.74,539l-.77-5.92c-1.05-8.11,0-13.58,3.39-17.24,3.13-3.4,7.52-4.43,12.48-4.63-12.82-7-22.66-9-34.23,1.33l-4.2,3.76-2.17-5.2c-.44-1.05-1-2.24-1.65-3.5-.4-.81-.82-1.66-1.23-2.52-9.2,7.68-24.44,11.31-39.75,9-16-2.41-27.78-10.75-31.49-22.29l-2-6.09,6.33.9c3.16.45,6.1,1.07,8.94,1.66,9.88,2.07,16.42,3.44,23.23-3.09,5-4.83,4.57-6.43,3.16-11.17a41.49,41.49,0,0,1-1.91-9.44c-14.7,3.4-25.26,6.8-38.53,17.15l-5.08,4,2.15,5.23-7.29-1.42c-3.5-.68-7.09-1.65-10.56-2.58-12.07-3.24-23.48-6.31-31.95,1.58l-3.44,3.2-2.61-3.9c-3-4.42-5.75-9.2-8.46-13.82-11-18.84-21.43-36.63-44.36-37.41l-12.42-.42,10.33-6.9a61.2,61.2,0,0,0,7.23-5.62c-12.45,7.76-24.06,13-39.9,4.47-3.3-1.78-3.83-5.91-4.29-9.56a25.42,25.42,0,0,0-.67-3.82,10.11,10.11,0,0,0-3.8-.36,20.3,20.3,0,0,1-7.75-1c-5.3-2-17.1-3.77-24.9-5-1.84-.28-3.51-.53-4.89-.75a148.16,148.16,0,0,0-20.11-1.78c-14.87-.51-20.7-1.68-34.06-21.29a69.79,69.79,0,0,1-3.79-6.52c-3.11-5.84-5.2-9.41-8.73-9.41h0c-3.25,0-5.54.86-6.81,2.55-1.72,2.29-1.89,6.41-.47,11.3l1.63,5.62-5.83-.52c-9.19-.83-18.66-1.68-25.49-8.74A29.63,29.63,0,0,1,151.39,382c3.86,8.43,4.17,14.62,1,19.17-6.64,9.65-25.36,6.35-45.18,2.85-3.12-.55-6.07-1.07-8.94-1.53l-5.76-.92,2.94-5c8.68-14.91,9.48-28.73,2.38-41.1C84.41,332,44.35,317.54,14.94,317.54H0l12.94-7.46c4.1-2.36,8.33-5.25,12.81-8.3,9.71-6.62,19.75-13.46,30.08-16.11,7.9-2,17.25-.83,27.15.42,12.28,1.56,25,3.17,32.63-2.3,5.46-3.91,8-8.52,7.55-13.71-.66-7.67-8-15.94-18.57-21.06C85,239.56,80.08,245.29,67,260.61l-3,3.55-7.74,9,2.47-40.74-2.43-.18c-4.43-.33-9-.67-12.29.21l-11.05,3,27-36.56,3.22,4.35c10.16,13.75,40,11.27,61.77,9.46l4-.33-17.58-9.84,3.74-3.74h0l-27,7.8-1.08-3.91c-3.36-12.18,1.67-18.87,8.49-24.18C90,180.59,84.62,184.08,79,187.67c-6.36,4.09-12.93,8.33-20,10.68-11.56,3.85-24.66,4.83-37.33,5.79-5.36.4-10.42.79-15.3,1.37L2.3,206,2,201.87C-.77,169.2-1.9,124.14,19.65,110.16c8-5.19,18.15-5.45,30.28-.79L43,93.72l7.91,1.93c4,1,5.82.52,6.25.09s.9-2.23-.09-6.25l-1.92-7.87,7.42,3.26c10.23,4.49,19.63.81,30.52-3.46,9.53-3.74,19.39-7.6,30.5-5.83l4.94.79-1.77,4.42a33,33,0,0,1,15-1.55,14.51,14.51,0,0,1,2.09-9.57c4.2-6.33,13-7.21,22.36-8.15,10.66-1.07,21.67-2.17,26.16-10.83l3-5.87,3.79,5.42a91.61,91.61,0,0,1,12.45,27,23,23,0,0,1,17.46,2.49c.49-8.73,2.1-15,6.4-18.69,6.35-5.43,16.46-3.86,31.76-1.48a85.59,85.59,0,0,1,13,3.35c8.41,2.67,12.65,3.79,17.06.07,5.09-4.31,4.37-9.25,2.9-15.26a18.14,18.14,0,0,1-.81-5.5c.35-4.54-.71-6.45-1.64-8.14-4-7.15.86-10.36,11.42-17.38,8.64-5.74,10.88-6.08,16.74-5a53,53,0,0,0,8.21,1c5.25.21,6.76,4.46,7.48,6.51.12.34.29.81.43,1.12,2.58-.21,8.21-3.87,11.94-6.29a58.82,58.82,0,0,1,8.07-4.73C372.23,5,380.85,2.05,392.44.57L396.94,0V7.54c10.28-8,17.35-7.43,21.71-5.14,5.15,2.71,7.75,8.42,8.5,14.55,7.8-4.7,14.18-2.1,18.23,1,3.29,2.53,2.41,7.25,1.57,11.82a43.06,43.06,0,0,0-.66,4.35c1.95.88,5.32,2.32,6.07,2.55a4,4,0,0,0-4.17,1.53l3.23,2.33,3.26-2.34a2.39,2.39,0,0,0-1.4-1,12.52,12.52,0,0,0,1.65-.07c2.34-.19,6.25-.5,8.64,2.58,1.91,2.48,2.29,5.54,2.63,8.24.21,1.66.44,3.54,1,4.32,9.64,13.25,19.34,27.46,28.73,41.21,8.6,12.59,17.44,25.55,26.4,38,12.32-34,54-47.71,84.94-57.94,4-1.32,7.8-2.57,11.35-3.81l6.74-2.34-3.62,16.66L628,77.86l2.52,4.83c.71,1.36,1.51,3.2,2.43,5.33,1.6,3.69,6.47,14.9,9.17,15.57,4.68.75,5.14-.5,6.84-5.18,1.31-3.62,3.1-8.57,8.45-11.09,15.72-7.4,24.33-1.83,30.48,7A18.54,18.54,0,0,1,686.61,84c2.8-17.9,16.22-21,29.2-24,3-.69,6-1.4,9-2.29l6-1.79-.87,6.18c-1.57,11.23.07,19.88,4.9,25.73s12.64,8.92,23.54,9.49c3.1.17,9.36-1.8,15.41-3.71,10.68-3.36,20.77-6.53,26.83-3.41,5.71,2.94,8.61,12.74,11.41,22.22,1.24,4.2,2.52,8.54,3.67,10.6,6.91,12.41,12.16,20.33,16.92,21.46s11.81-3.5,24-11.75c21.68-14.64,34.48-10,53.86-3,4.33,1.56,9.24,3.33,14.67,5a4,4,0,1,1-2.39,7.64c-5.59-1.75-10.59-3.55-15-5.14-18.88-6.81-28.35-10.22-46.67,2.15-13.75,9.29-22.05,14.89-30.36,12.91-7.72-1.84-13.48-10-22-25.35-1.58-2.83-2.87-7.19-4.35-12.23-1.65-5.59-4.72-16-7.4-17.37-3.13-1.61-13.74,1.72-20.77,3.93-7.34,2.31-13.68,4.3-18.23,4.06-13.23-.7-23.09-4.87-29.3-12.39-5.36-6.5-7.78-15.24-7.22-26l-3.78.89c-13.5,3.14-21.23,5.5-23.11,17.48-.75,4.77,1.59,8,4.3,11.81,3.8,5.29,9,12.55.18,23l-3.7,4.41-2.84-5c-1.77-3.12-3.33-6.24-4.84-9.26-7.95-15.9-12.09-22.63-26.83-15.68-2.25,1.06-3.11,3.19-4.34,6.58-1.75,4.84-4.4,12.16-15.64,10.35-6.35-1-10.45-9.29-15.12-20L608.14,109l6.39-29.4-4.75,1.57c-31.52,10.41-74.7,24.67-81.92,60.17l-1.8,8.85-5.34-7.28c-10.7-14.57-21.22-30-31.39-44.9-9.35-13.7-19-27.86-28.59-41-1.78-2.45-2.15-5.42-2.47-8a16.14,16.14,0,0,0-.78-3.92c-.52,0-1.35,0-1.89.09-1.75.14-4.21.34-6.12-1-1-.34-2.25-.87-3.84-1.56-4.83-2.08-5-2.3-5.6-2.9-2.54-2.7-1.77-6.91-.95-11.36a37.22,37.22,0,0,0,.66-4.57c-4.2-2.76-8-1.23-13,3.75-2.17,10.88-8.83,18.16-17.41,19l-10.1,1,6.71-7.62c1.93-2.19,3.83-4.6,5.85-7.16,2.42-3.07,4.89-6.21,7.46-9,.74-6.5-1-12.53-4.31-14.26-3.93-2.06-11.08,1.62-19.14,9.85l-6.86,7V9.19c-8.55,1.51-15.61,4-23.74,7.44a57.9,57.9,0,0,0-6.82,4.07c-5.49,3.57-11.17,7.26-15.8,7.57-6,.4-7.74-4.39-8.47-6.44-.13-.37-.31-.87-.46-1.19a61.41,61.41,0,0,1-9.13-1.07c-3.67-.67-4.05-.74-10.87,3.8-1.91,1.27-7.31,4.87-9,6.58l.15.26c1.18,2.13,3.15,5.7,2.62,12.63a20.17,20.17,0,0,0,.6,3c1.32,5.39,3.78,15.42-5.51,23.27-8,6.74-16.45,4-24.65,1.45a78,78,0,0,0-11.82-3.07c-13.5-2.1-21.94-3.24-25.32-.35-2.66,2.28-3.79,8.38-3.79,20.41v9.3l-6.75-6.4c-3.62-3.43-11-8.56-19.47-4.32l-4.48,2.23-1.19-4.86a91.35,91.35,0,0,0-9.32-23.83c-7.35,7.69-19,8.86-28.71,9.83-7.07.71-14.39,1.44-16.49,4.61-1.19,1.79-1.11,4.9.23,9.26l2.3,7.46-7.4-2.5a25.76,25.76,0,0,0-24.28,4.38l-11.6,8.95,7.4-18.5c-7.1.18-14,2.88-21.19,5.71-9.65,3.78-19.57,7.67-30.36,5.38a10.22,10.22,0,0,1-2.83,7.15,9.93,9.93,0,0,1-6.42,2.79l10,22.58L56,121c-13.81-7.59-24.58-9-32-4.18-12.9,8.37-17.74,35.36-14.4,80.25,3.8-.37,7.7-.67,11.51-1,12.18-.92,24.78-1.87,35.41-5.41,6.11-2,12-5.81,18.19-9.81,11.17-7.2,22.72-14.63,36.86-12.35l9.2,1.48-7.41,5.65c-2.32,1.77-4.65,3.32-6.9,4.82-8.33,5.55-12.89,9-12.4,15.93L157.72,178,131,194c-2.13,1.27-4.56,4.06-6.71,6.53l34,19H142.94c-4.67,0-10.83.51-17.35,1.05-22.91,1.91-50.95,4.24-65.32-8.77l-8.91,12.06c1.87.06,3.74.2,5.51.34,2.19.16,4.26.32,6.07.32h4.25L65.65,250c10.9-12.23,20.34-18.78,42.42-8.14,13.32,6.42,22.15,17,23.07,27.58.69,8-3.17,15.4-10.87,20.91-10.2,7.3-24.48,5.48-38.3,3.73-9.12-1.16-17.73-2.25-24.15-.61-9,2.29-18.42,8.74-27.56,15l-2.85,1.94c27.16,3.19,63.1,16.28,77.38,41.13,7.69,13.38,7.76,28.52.28,44.07l3.56.63c13.33,2.35,33.48,5.91,37.2.5.88-1.28,2.13-5.61-5.33-18l-5-8.34,9.43,2.41c10.13,2.59,16.7,1.9,22.68-2.38l3.28-2.35,2.32,3.3c3.72,5.3,9,6.86,16.76,7.78-.52-5.07.45-9.46,2.88-12.7,2-2.62,5.85-5.74,13.2-5.75h0c8.51,0,12.54,7.57,15.78,13.65a63.81,63.81,0,0,0,3.34,5.78c11.76,17.25,15.14,17.37,27.72,17.8A155.47,155.47,0,0,1,274,399.69l4.81.74c8.62,1.3,20.44,3.09,26.52,5.37a13.19,13.19,0,0,0,4.86.53c2.61,0,5.56-.06,8.5,1.77s3.52,5.71,4,9.41a25.65,25.65,0,0,0,.66,3.79c13.58,7,22.72,1.13,36.47-7.74,3.81-2.46,7.76-5,12.16-7.49l10.17-5.74-4.51,10.77a52.36,52.36,0,0,1-13.7,18.79c20.69,5.09,31.47,23.52,41.13,40,2,3.4,3.9,6.66,5.86,9.79,11-7.18,24.09-3.67,35.76-.54l2.58.69-5.68-13.79,4.12-1.33c3.29-1.06,7.27-1.08,10.79-1.09,1.52,0,3,0,4.16-.1l4.29-.31v7.47c12.87-8.56,24.24-11.55,40.13-15.08l5.26-1.17-.41,5.38a29.93,29.93,0,0,0,1.58,11.86c2,6.65,2.68,11.59-5.3,19.23-9.86,9.45-20.31,7.26-30.41,5.14l-.17,0c4.49,5.09,11.92,8.71,21.18,10.11,15.33,2.31,30.82-2.27,36.85-10.9l5.59-8,1.63,9.62a26.56,26.56,0,0,0,2.51,6.4c17.87-12.58,34.44-2.36,49.18,6.74l3.45,2.12,9.07,5.52c6.38-3.72,8.94-7.66,15-17.06l6-9.23,2.59,7.94c1.5,4.58,2.91,4.48,7.61,4.13,3.63-.27,8.53-.63,12.84,2.85.76-2.18,1.63-4.35,2.48-6.48.92-2.29,1.78-4.45,2.47-6.52l1.46-4.38,4.39,2.2c0-1.49,0-2.94-.05-4.37-.23-15.16-.41-27.13,15.39-38.81,10.72-7.93,25.32-10.54,38.21-12.85,2.25-.4,4.45-.8,6.59-1.21,5.18-1,11.67-1.36,18.55-1.74,11.88-.66,25.34-1.4,32.35-5.71,2.13-1.31,3.61-4.32,5.17-7.51,1.77-3.6,3.77-7.68,7.35-10.31,4.16-3,8.93-4.38,13.54-5.68,4-1.11,7.68-2.16,10.79-4.18a26.4,26.4,0,0,0,9.25-9.43c4.51-7.31,8.26-7.67,25.08-2.42a89.77,89.77,0,0,1,13.81,6c10.12,5.11,14.85,7.09,21.05.58,4.83-5.07,7.78-15.91,10.9-27.39,4.79-17.6,9.74-35.8,23.27-42.39,7.2-3.51,16-3.11,26.24,1.2a4,4,0,0,1-3.11,7.37c-8.1-3.41-14.52-3.86-19.63-1.37-10.27,5-14.74,21.42-19.05,37.3-3.4,12.48-6.6,24.27-12.83,30.81-10.56,11.08-20.67,6-30.45,1a82.14,82.14,0,0,0-12.59-5.48c-5.16-1.61-11.4-3.41-13.91-3.19-.62.06-.68.07-2,2.17a34.25,34.25,0,0,1-11.69,11.93c-4.13,2.7-8.64,4-13,5.18-4.11,1.15-8,2.24-11,4.43-2,1.46-3.4,4.33-4.89,7.37-1.9,3.88-4.06,8.28-8.16,10.8-8.74,5.37-22.65,6.14-36.1,6.88-6.6.37-12.83.71-17.47,1.61-2.17.42-4.42.82-6.7,1.23-12,2.15-25.65,4.59-34.86,11.4-12.49,9.24-12.37,17.41-12.14,32.26.05,3.47.11,7.05,0,11l-.17,6.28-7.62-3.81c-.35.89-.7,1.77-1,2.65-1.79,4.49-3.65,9.13-4.2,13.29L655,530.55l-5.74-13.43c-2.68-6.27-5.39-6.07-10.31-5.71-3.57.27-8.48.63-12.21-3.22-6.23,9.47-9.85,13.93-20.65,19-5.4,2.53-11.13,3.23-16.67,3.91-6.46.79-12.57,1.54-18.49,4.94ZM583,519.15c-3.91,0-7.16.41-8.71,2.09-.95,1-1.49,2.79-1.62,5.2,5.46-2,10.88-2.69,15.82-3.29,5.15-.63,10-1.23,14.26-3.22l.79-.38h-7.55c-2.46,0-4.85-.11-7.15-.21C586.77,519.24,584.79,519.15,583,519.15ZM454.58,471.72l4.37,10.6V471.65h-.42C457.24,471.65,455.88,471.66,454.58,471.72ZM692.12,101.46c.92,1.73,1.79,3.49,2.66,5.21l1.07,2.13c0-2.2-1.47-4.2-3.53-7.06ZM446.32,35h0Z"/></g></g></svg>