<svg xmlns="http://www.w3.org/2000/svg" viewBox="0 0 939.44 536.24"><defs><style>.cls-1{fill:none;stroke:#000;stroke-linecap:round;stroke-miterlimit:10;stroke-width:6px;}</style></defs><title>shape_bzhAsset 2</title><g id="Layer_2" data-name="Layer 2"><g id="Layer_2-2" data-name="Layer 2"><path class="cls-1" d="M922.44,137.41c-29.08-9.09-40.42-19.15-65.1-2.49-25.79,17.42-29.65,19.48-46.68-11.08-3.78-6.78-6.85-27.83-13.42-31.21-7.9-4.07-31.45,8-40.62,7.56C731.71,98.87,721,84.6,724.44,60.41,708.63,65.15,692,64.6,689.06,83.52c-2.31,14.78,17.39,18.6,5.38,32.89-10.08-17.79-14.07-37.33-36.86-26.59-9.18,4.33-3.9,18.8-17.64,16.59-6.12-1-11.65-17.53-14.5-23l-12,12,5-23c-33.14,11.53-87.38,24.65-96,67-20.55-28-40-58.47-60-85.89-2.37-3.26-1.1-9.28-3.56-12.47-2-2.54-17.21-5-17.47-5.23-2.35-2.49,2.65-13.77,0-15.81-13-10-23.36,9.31-34,21.41,22.82-2.26,19.49-62.28-16-26v-12c-11.11,1.42-19.36,4.23-29.3,8.41C357,14,346.54,22.76,340.81,23.15s-3-7.41-8.3-7.63c-13.61-.55-10.81-4.44-22.57,3.39-19.67,13.09-6.82,7.2-8,22.5-.32,4.11,6.36,15.17-3.5,23.5-9.22,7.79-18.9-.28-33.27-2.52-27.84-4.33-33.73-4.53-33.73,24-7-6.63-15.63-9.17-24-5-2.57-10.46-6.8-21.14-13-30-12,23.22-58.35,1.6-49,32a29.86,29.86,0,0,0-28,5l4-10c-22.16-3.54-40.52,18.43-62,9q3.56,14.56-11,11l8,18c-59.56-32.74-54.79,50.46-52,84,16.62-2,36-1.73,51.85-7,17.82-5.92,33.12-25.25,53.15-22-11.51,8.77-24.46,12.81-20,29l38-11c-4,2.36-7.73,7.73-11,11l25,14c-21.53,0-68.18,10.05-83-10l-17,23c5.82-1.56,13.93,0,20,0l-2,33c15.26-17.67,21.33-27.73,45.39-16.13,19.71,9.5,29.24,29,11.61,41.63-15.3,10.95-43.93-1.9-61.11,2.5-14.24,3.64-28.78,16.44-41.89,24,42.69,0,115.62,30.73,84,85,27.72,4.43,67.4,15.33,45-22,10,2.56,18.23,2.56,26-3,5.78,8.22,14.69,9.07,25,10-2.94-10.15-.31-19,11.11-19,8.31,0,10.91,10.47,15.83,17.68,18,26.38,20.11,16.31,51.5,21.38,7.52,1.21,23.6,3.29,30.56,5.91,4.68,1.76,9-.34,12.65,1.94,2.87,1.78,1.4,11.47,4.35,13.06,20.17,10.85,32.5-3.44,53-15-4,9.65-11.24,17.15-20,23,31.3,1.06,41.33,31.08,56,53,12.86-12,30.37-3,46,0l-7-17c4-1.28,9.81-.7,14-1v11c15-11.72,26.58-14.91,45-19-1.16,15.39,8.63,17.84-2.5,28.5-10.63,10.18-21.42,4.51-35.5,2.5,7.86,24.5,55.33,26.56,69,7,.66,3.87,3.49,8.37,5,12,18.45-16.55,34.64-4.57,52,6-15.43,0-29.79-4.54-27,17,12.08-6.91,24.78-4,35.45-9,11.59-5.42,13.87-9.69,22.55-23,5.08,15.57,18.6-2.31,26,15,.91-6.93,4.78-14.35,7-21l6,3c.57-21.21-3.56-33.59,13.77-46.41,11.75-8.69,29-10.59,43.18-13.34,14.06-2.72,40.13-.54,52.23-8,6-3.71,7-13.77,12.79-18,6.93-5.07,16.69-4.87,24.16-9.73,17.72-11.56,4.41-19.66,30.95-11.38,16.68,5.21,26.92,18.12,39,5.49,16.82-17.65,11-86.59,56-67.66"/></g></g></svg>